<svg width="84" height="84" viewBox="0 0 84 84" fill="none" xmlns="http://www.w3.org/2000/svg">
<circle cx="42" cy="42" r="42" fill="#44A56B" fill-opacity="0.15"/>
<path d="M42.6791 18.0012C43.5776 18.1926 44.4941 18.286 45.3771 18.5659C47.3285 19.1845 49.0287 20.1919 50.4154 21.7114C50.5326 21.8394 50.6547 21.9746 50.8006 22.0632C52.5187 23.1053 53.3299 24.7193 53.5609 26.6313C53.8241 28.8172 53.6255 31.0199 53.6685 33.2154C53.6757 33.5815 53.7128 33.9297 53.8241 34.2886C54.3158 35.8631 53.0739 37.5477 51.3235 37.6638C50.9466 37.6889 50.8545 37.8205 50.8018 38.1508C50.3687 40.8368 49.0071 42.9402 46.7733 44.4824C46.1129 44.9383 46.1117 46.0115 46.7446 46.4877C47.6192 47.1445 48.5728 47.61 49.6149 47.9438C51.1883 48.4475 52.7532 48.9823 54.2919 49.5817C55.8078 50.1728 56.7494 51.3369 57.0808 52.9175C57.8131 56.4183 58.5046 59.9275 59.1854 63.4391C59.451 64.8079 58.9988 65.9313 58.038 66.4949C57.575 66.7665 57.0653 66.8981 56.5341 66.9017C54.3852 66.9124 52.2364 66.9148 50.0863 66.9101C49.5958 66.9101 49.2859 66.6241 49.2739 66.2173C49.262 65.7926 49.585 65.509 50.0959 65.4803C50.4728 65.4599 50.9693 65.6478 51.1966 65.4037C51.4407 65.1429 51.2696 64.6464 51.2708 64.2527C51.2804 62.549 51.2732 60.8464 51.2756 59.1426C51.2756 58.5408 51.5352 58.2118 51.9911 58.2154C52.4446 58.2178 52.7042 58.5504 52.7054 59.1522C52.709 61.1108 52.7185 63.0682 52.697 65.0268C52.6922 65.4181 52.8167 65.4982 53.178 65.4899C54.2285 65.4671 55.279 65.4899 56.3295 65.4779C57.5211 65.4635 57.9842 64.9 57.7556 63.7323C57.0737 60.253 56.3833 56.776 55.6905 53.2991C55.4297 51.9914 54.6197 51.173 53.379 50.7483C52.5821 50.4755 51.7805 50.2159 50.9921 49.9203C50.6774 49.8019 50.5338 49.8557 50.3699 50.162C48.5154 53.6234 46.6393 57.074 44.7765 60.5317C44.0825 61.8203 43.0368 62.5406 41.5532 62.519C40.3567 62.5011 39.3649 62.0022 38.7607 60.966C37.7999 59.3185 36.9109 57.6291 36.0076 55.9481C35.7827 55.5293 35.925 55.1082 36.2936 54.9263C36.6585 54.7457 37.0461 54.8832 37.2878 55.3223C38.1134 56.8287 38.927 58.341 39.7429 59.8509C40.2012 60.698 40.876 61.1766 41.8703 61.0725C42.6755 60.9888 43.1744 60.4851 43.5417 59.8031C45.072 56.9615 46.6094 54.1235 48.1445 51.2831C48.4472 50.7232 48.7451 50.162 49.0574 49.6081C49.1758 49.3987 49.1794 49.3006 48.9138 49.2013C48.1289 48.9093 48.1337 48.895 47.7449 49.614C46.0028 52.8301 44.2596 56.0438 42.5235 59.2623C42.3249 59.6308 42.106 59.9407 41.6357 59.9443C41.1643 59.9479 40.9358 59.6428 40.7372 59.2754C38.9533 55.9744 37.1658 52.6746 35.3723 49.3783C35.2897 49.2264 35.2718 48.9392 35.0301 48.9847C34.7226 49.0421 34.4175 49.1606 34.1411 49.3089C33.9964 49.3867 34.1627 49.5375 34.2141 49.6368C34.6161 50.3953 35.0277 51.1491 35.4369 51.9041C35.4979 52.0153 35.5625 52.1254 35.614 52.2415C35.8018 52.6662 35.7001 53.0455 35.3519 53.2369C35.0014 53.4295 34.6066 53.3255 34.3744 52.9246C33.976 52.2367 33.6195 51.526 33.2258 50.8344C33.0332 50.4946 32.9578 49.9646 32.6061 49.8725C32.2974 49.7911 31.8942 50.0663 31.534 50.1859C31.0363 50.3523 30.5446 50.5329 30.0421 50.6849C28.629 51.1132 27.7867 52.05 27.4996 53.4942C26.8332 56.8466 26.1655 60.1979 25.5027 63.5516C25.4656 63.7382 25.45 63.9309 25.4441 64.1211C25.4201 64.9227 25.7635 65.4013 26.5604 65.442C27.8154 65.5066 29.0741 65.4719 30.3316 65.4767C30.669 65.4779 30.5458 65.2159 30.5458 65.0579C30.5541 63.1316 30.5506 61.2053 30.5529 59.279C30.5529 59.1044 30.547 58.9237 30.59 58.7586C30.6858 58.3901 30.9382 58.1903 31.3259 58.219C31.692 58.2453 31.9014 58.4702 31.9672 58.8196C31.9959 58.9739 31.9839 59.1367 31.9839 59.2958C31.9839 61.1419 31.9803 62.9893 31.9863 64.8354C31.9887 65.5796 31.8858 65.4755 32.6049 65.4755C37.0784 65.4791 41.552 65.4779 46.0256 65.4779C46.1368 65.4779 46.2481 65.4779 46.3594 65.4779C47.0019 65.4827 47.3488 65.7339 47.3476 66.1958C47.3476 66.6564 47.0007 66.9101 46.357 66.9101C39.9248 66.9101 33.4938 66.9112 27.0617 66.9101C25.9801 66.9101 24.9954 66.6708 24.3876 65.6633C23.9521 64.9419 23.9329 64.1414 24.0897 63.347C24.7657 59.9 25.4429 56.4518 26.1607 53.0132C26.5089 51.3465 27.4816 50.1261 29.1004 49.5267C30.9777 48.8304 32.8765 48.195 34.7681 47.5394C35.5518 47.2678 36.1512 46.7031 36.8188 46.252C37.1395 46.0354 36.9672 44.9646 36.6166 44.748C34.5108 43.4439 33.093 41.6157 32.4134 39.2276C32.3093 38.8615 32.2292 38.4858 32.1801 38.1101C32.1406 37.8134 32.0569 37.6865 31.7183 37.6674C30.3663 37.5932 29.3361 36.6516 29.0777 35.3271C29.0179 35.0196 29.0203 34.7086 29.128 34.4322C29.3852 33.7693 29.3373 33.0885 29.3242 32.4078C29.2895 30.5604 29.2703 28.7167 29.7681 26.91C30.0839 25.7662 30.5625 24.699 31.1978 23.6999C31.4862 23.2465 31.8619 23.1208 32.2376 23.341C32.6061 23.5576 32.703 23.9727 32.4242 24.425C31.6393 25.7004 31.1021 27.062 30.8844 28.5492C30.7001 29.7995 30.7444 31.057 30.742 32.3132C30.742 32.5382 30.8521 32.5418 31.0148 32.4843C31.2876 32.3886 31.5663 32.324 31.8559 32.336C32.0629 32.3443 32.1299 32.2259 32.1682 32.0536C32.5427 30.3463 34.2799 29.1462 36.2888 29.4178C39.6544 29.8725 42.7341 29.1474 45.4118 26.9603C46.2349 26.2879 47.1048 26.4386 47.691 27.3372C48.2223 28.152 48.8983 28.694 49.8949 28.8423C50.6128 28.9488 50.9167 29.3604 50.9406 30.1034C50.9598 30.7231 50.9538 31.3453 50.943 31.9663C50.9382 32.2163 50.9968 32.3695 51.2828 32.3408C51.3295 32.336 51.3785 32.3491 51.4252 32.3491C51.6944 32.3491 52.0581 32.6255 52.1742 32.4628C52.3201 32.2582 52.2447 31.8837 52.2376 31.5834C52.2005 29.9933 52.35 28.3984 52.1454 26.8131C52.0198 25.8392 51.8021 24.8114 51.0567 24.1701C49.457 22.7942 48.0667 21.1299 46.0124 20.3355C42.149 18.8423 38.5094 19.1845 35.0971 21.5822C34.9284 21.7006 34.7693 21.8347 34.597 21.9495C34.1926 22.2187 33.781 22.1744 33.5381 21.8418C33.2976 21.514 33.3802 21.1072 33.7595 20.7961C34.8147 19.9323 35.9741 19.2503 37.2567 18.7813C38.2462 18.4188 39.262 18.1711 40.3149 18.0814C40.4046 18.0742 40.4919 18.0287 40.5805 18C41.2816 18 41.9815 18 42.6826 18L42.6791 18.0012ZM49.5084 36.1934C49.5084 35.7638 49.5156 35.3343 49.5037 34.9048C49.5001 34.7791 49.5814 34.5614 49.3924 34.5494C49.2093 34.5387 49.0263 34.6583 49.0239 34.9C49.0203 35.1381 49.0263 35.3774 49.0191 35.6155C48.9724 37.2403 47.9662 38.2465 46.3438 38.2824C45.803 38.2943 45.2622 38.2931 44.7214 38.2824C43.0619 38.2489 42.0234 37.2056 42.0246 35.5401C42.0246 35.1441 41.9588 34.9993 41.5137 34.9945C41.0291 34.9897 40.9502 35.1512 40.9526 35.5903C40.9597 37.1984 39.9236 38.2381 38.3108 38.2812C37.7855 38.2955 37.2603 38.2884 36.7351 38.2836C35.005 38.2656 33.982 37.2415 33.9688 35.5174C33.9676 35.3104 33.9652 35.1034 33.9688 34.8964C33.9724 34.6451 33.7654 34.5387 33.6003 34.5351C33.3921 34.5315 33.4926 34.7588 33.4915 34.8784C33.4843 35.4982 33.4867 36.1192 33.5022 36.7401C33.5585 38.9703 34.335 40.8763 35.9621 42.4449C38.5285 44.9203 42.5821 45.4061 45.6104 43.5265C48.324 41.8418 49.5419 39.3448 49.5084 36.1922V36.1934ZM49.5084 31.5308C49.5084 31.2125 49.4941 30.893 49.5132 30.576C49.5276 30.3235 49.4343 30.2051 49.1866 30.1488C48.0571 29.8916 47.2065 29.2359 46.5975 28.2668C46.4443 28.0239 46.3402 28.0299 46.1308 28.1986C43.3742 30.4264 40.1988 31.2065 36.7135 30.9062C36.333 30.8739 35.9538 30.8153 35.5733 30.8105C34.6018 30.7985 33.7403 31.5104 33.525 32.4257C33.4209 32.8684 33.7774 32.9031 33.9976 33.0718C34.1974 33.2249 34.3397 33.2034 34.5168 33.0048C34.8758 32.6016 35.3639 32.4472 35.8892 32.4401C36.9229 32.4269 37.9578 32.4257 38.9916 32.4401C39.5479 32.4472 40.1414 32.5609 40.4273 33.0491C40.7791 33.6497 41.2708 33.5863 41.8021 33.5863C42.0437 33.5863 42.2053 33.5396 42.3429 33.3075C42.624 32.8337 43.0571 32.5358 43.6159 32.4903C44.8853 32.3862 46.156 32.4042 47.4254 32.4819C47.8525 32.5083 48.2115 32.7176 48.5034 33.0347C48.6015 33.1412 48.6853 33.2489 48.8624 33.1472C49.2357 32.933 49.6401 32.7631 49.5168 32.1948C49.4714 31.9818 49.5096 31.7509 49.5084 31.5284V31.5308ZM38.4005 45.5927C38.3742 45.9792 38.3371 46.2675 38.5955 46.5451C39.5252 47.5442 40.4357 48.5624 41.3366 49.5889C41.5556 49.839 41.6812 49.8617 41.9121 49.5973C42.7676 48.6162 43.6278 47.6375 44.5264 46.6959C44.8662 46.3405 44.9356 45.9816 44.8363 45.5042C42.709 46.2747 40.5757 46.2998 38.4005 45.5927ZM37.4792 33.871C36.9708 33.871 36.4623 33.871 35.9538 33.871C35.5853 33.871 35.395 34.0469 35.401 34.4274C35.407 34.8402 35.3902 35.2541 35.4058 35.6669C35.4321 36.3956 35.8353 36.8143 36.5687 36.8442C37.1718 36.8694 37.7772 36.8694 38.3802 36.843C39.1028 36.8107 39.5025 36.3824 39.5276 35.649C39.5407 35.2517 39.5228 34.8545 39.5324 34.4573C39.5419 34.0565 39.3505 33.871 38.9569 33.871C38.4639 33.871 37.971 33.871 37.4792 33.871ZM45.523 33.871C45.0145 33.871 44.5061 33.8686 43.9976 33.871C43.6566 33.8734 43.4556 34.0397 43.4508 34.3915C43.4448 34.8366 43.4256 35.2829 43.458 35.7255C43.5082 36.4063 43.9126 36.8119 44.5886 36.8382C45.2538 36.8634 45.9239 36.861 46.5891 36.8203C47.1299 36.788 47.5068 36.4087 47.5498 35.8727C47.5917 35.3678 47.5774 34.8569 47.5762 34.3496C47.5762 34.0086 47.3632 33.8746 47.0485 33.8722C46.54 33.8686 46.0315 33.8722 45.523 33.8722V33.871ZM38.6003 52.3085C39.1986 51.8718 39.7585 51.4542 40.3268 51.0498C40.5147 50.917 40.529 50.8129 40.3699 50.6382C39.4833 49.6631 38.6039 48.6808 37.7257 47.6985C37.6192 47.5789 37.5307 47.5059 37.3716 47.6243C37.1167 47.8134 36.8547 47.9928 36.5903 48.1675C36.4515 48.2596 36.4563 48.353 36.5293 48.487C37.2184 49.7516 37.9016 51.0187 38.5991 52.3085H38.6003ZM44.6173 52.2678C44.7549 52.208 44.7848 52.0752 44.8423 51.9687C45.3507 51.0354 45.8545 50.101 46.3594 49.1666C46.8523 48.2549 46.8475 48.2608 45.9729 47.683C45.7803 47.5561 45.6726 47.5334 45.5051 47.7248C44.6556 48.6904 43.7942 49.6451 42.9279 50.5951C42.752 50.7878 42.715 50.905 42.9614 51.0725C43.4591 51.4123 43.9365 51.7808 44.4235 52.1374C44.4869 52.184 44.5551 52.2259 44.6173 52.2678ZM41.6082 57.8672C42.24 56.9136 42.8478 56.0295 42.1718 54.9132C42.1634 54.9 42.1562 54.8844 42.1538 54.8689C42.1119 54.6272 41.9767 54.547 41.7255 54.5315C41.3534 54.5088 41.1284 54.5997 41.0519 55.0005C40.9921 55.3104 40.8688 55.6083 40.7647 55.9074C40.7097 56.0642 40.6929 56.2017 40.7827 56.3585C41.0555 56.8395 41.3163 57.3288 41.6094 57.866L41.6082 57.8672ZM32.0533 35.0029C32.0533 34.7002 32.0389 34.3975 32.0581 34.0972C32.076 33.8184 31.9708 33.7322 31.6992 33.7681C31.0255 33.8555 30.4656 34.4274 30.48 35.0304C30.4943 35.6167 31.0483 36.1539 31.7027 36.2412C31.9791 36.2783 32.0748 36.185 32.0581 35.9098C32.0401 35.6083 32.0545 35.3056 32.0533 35.0041V35.0029ZM50.9442 34.9658C50.9442 35.2984 50.9526 35.631 50.9418 35.9636C50.9334 36.1993 51.0351 36.2616 51.2577 36.2424C51.9253 36.1862 52.5295 35.5796 52.508 34.9706C52.4864 34.37 51.875 33.7957 51.2385 33.7633C51.0447 33.7538 50.9382 33.7992 50.9442 34.0158C50.9526 34.3329 50.9466 34.6487 50.9454 34.9658H50.9442ZM41.619 53.1065C42.0629 53.1065 42.374 52.8768 42.3859 52.5394C42.3907 52.4114 41.765 51.9029 41.613 51.9112C41.4826 51.9184 40.8736 52.4185 40.87 52.5214C40.8604 52.8433 41.1966 53.1065 41.619 53.1065ZM39.7118 54.3556C39.9164 54.0589 39.9404 53.816 39.7681 53.5659C39.7035 53.4714 39.6855 53.2979 39.5013 53.4284C39.3744 53.5169 39.2763 53.6006 39.3852 53.7729C39.4929 53.9452 39.585 54.1271 39.713 54.3556H39.7118ZM43.5489 54.3484C43.6841 54.1008 43.793 53.9105 43.8935 53.7143C43.9772 53.5504 43.8384 53.4894 43.7379 53.4188C43.5824 53.3099 43.5597 53.4571 43.501 53.5432C43.3323 53.7909 43.3204 54.035 43.5489 54.3484Z" fill="#44A56B"/>
</svg>
