<svg width="84" height="84" viewBox="0 0 84 84" fill="none" xmlns="http://www.w3.org/2000/svg">
<circle cx="42" cy="42" r="42" fill="#00A4EC" fill-opacity="0.15"/>
<path d="M66.7499 55.8339C66.619 56.448 66.5219 57.0699 66.3534 57.6736C65.0501 62.3223 60.6683 65.3708 55.7645 65.056C51.1171 64.758 47.137 61.0526 46.4607 56.378C46.1576 54.2869 46.4711 52.2826 47.4143 50.3884C47.5607 50.0943 47.5775 49.9454 47.2601 49.7445C45.5629 48.677 43.8799 47.5848 42.2021 46.4848C41.9598 46.3267 41.7966 46.3332 41.5595 46.4887C39.8674 47.5964 38.1689 48.6938 36.4639 49.7795C36.2138 49.9389 36.1568 50.0503 36.298 50.3405C39.3064 56.4907 35.7824 63.5958 29.0698 64.9316C28.8004 64.9847 28.527 65.0249 28.2536 65.0508C27.7457 65.1 27.3843 64.8357 27.3415 64.4004C27.3013 63.9858 27.5825 63.6645 28.0735 63.6062C29.614 63.4235 31.0236 62.9053 32.2881 62.0009C32.9217 61.5475 32.9243 61.5488 32.5459 60.8699C31.7129 59.3799 30.5494 58.2139 29.0841 57.3445C28.3106 56.8859 28.2692 56.4363 28.9455 55.8429C30.1102 54.822 30.21 53.0976 29.1683 51.9872C28.1241 50.8743 26.3711 50.8536 25.3061 51.9419C24.2424 53.0289 24.3033 54.7637 25.4409 55.8028C26.1832 56.4804 26.1392 56.8691 25.2711 57.3912C23.7216 58.324 22.5322 59.5924 21.7005 61.2016C21.5644 61.4646 21.5813 61.6123 21.8274 61.7988C22.8211 62.5529 23.9159 63.0841 25.1208 63.3976C25.7129 63.5518 25.9591 63.8848 25.8386 64.3447C25.7272 64.7683 25.332 64.9407 24.7775 64.8059C20.686 63.8161 17.6374 60.4022 17.0881 56.1966C17.0751 56.1021 17.0842 55.9997 17 55.9297C17 55.2496 17 54.5694 17 53.8892C17.1244 53.3243 17.2099 52.7477 17.3783 52.1971C18.5534 48.3466 21.0837 45.8344 25.0146 44.9741C29.0077 44.0996 32.3905 45.3537 35.0646 48.4476C35.3069 48.7288 35.4442 48.7184 35.7228 48.5357C37.4006 47.4345 39.0862 46.3462 40.7782 45.2695C41.0529 45.0946 41.1747 44.9119 41.1695 44.5738C41.1501 42.9867 41.1526 41.3995 41.1669 39.8137C41.1695 39.4795 41.0995 39.3408 40.7251 39.3033C36.0842 38.8511 32.2104 34.9397 31.7517 30.2988C31.4978 27.7257 32.0951 25.3885 33.5772 23.2741C33.9957 22.6768 34.4129 22.5343 34.8107 22.8323C35.1916 23.1173 35.1786 23.5371 34.7731 24.1084C32.6004 27.166 32.5991 31.2148 34.7705 34.2452C34.8729 34.3877 34.9856 34.5238 35.1229 34.7026C35.6075 33.8876 36.0972 33.1297 36.7139 32.4651C37.2114 31.93 37.7335 31.4182 38.3399 31.0114C38.634 30.8145 38.6638 30.6966 38.4565 30.3869C36.8966 28.0535 38.0639 24.9052 40.7549 24.1395C42.3964 23.6718 44.1494 24.2548 45.1716 25.6087C46.2172 26.9924 46.3208 28.8464 45.3698 30.291C45.1055 30.6927 45.1781 30.8339 45.5331 31.0917C46.7147 31.9468 47.6579 33.0287 48.3951 34.288C48.4676 34.4111 48.5454 34.5303 48.6464 34.6948C49.5456 33.6182 50.1195 32.4197 50.411 31.093C51.6768 25.3289 47.0658 20.0286 41.1747 20.4768C39.7651 20.5844 38.4526 21.021 37.2555 21.7815C37.1738 21.8333 37.0922 21.8878 37.0093 21.937C36.5403 22.2143 36.1425 22.1637 35.9003 21.7945C35.6554 21.4213 35.759 21.0223 36.2047 20.7217C37.6973 19.715 39.3466 19.1178 41.1436 19.018C46.497 18.7187 50.9111 22.178 51.9256 27.4368C52.966 32.8252 49.1115 38.3316 43.6778 39.2203C42.973 39.3352 42.6206 39.7597 42.6206 40.4939C42.6206 41.8699 42.6283 43.2471 42.6141 44.623C42.6115 44.9171 42.7061 45.0894 42.9548 45.2475C44.6611 46.3332 46.361 47.4293 48.0517 48.5383C48.3238 48.7158 48.4482 48.6964 48.6684 48.4437C51.5019 45.1853 55.0324 44.0594 59.2354 45.0467C59.3922 45.083 59.5489 45.127 59.6992 45.1866C60.106 45.3473 60.2939 45.6971 60.1851 46.0689C60.0672 46.4705 59.707 46.6921 59.2717 46.5742C58.6148 46.3954 57.9592 46.2231 57.2751 46.1868C53.5568 45.9873 50.6792 47.4772 48.9029 50.7253C47.1228 53.9799 47.4687 57.202 49.6363 60.2169C49.6738 60.2687 49.7218 60.3115 49.793 60.3892C50.2258 59.6727 50.6611 58.9822 51.2001 58.3642C51.7455 57.7384 52.3415 57.167 53.0243 56.6993C53.3028 56.5089 53.3184 56.3884 53.1318 56.1085C51.5395 53.7039 52.7729 50.4908 55.5364 49.8054C57.2 49.3934 58.918 50.0231 59.9117 51.4107C60.8976 52.7866 60.9482 54.6367 59.9959 56.0606C59.786 56.3741 59.8067 56.5076 60.1086 56.7227C61.447 57.6801 62.4809 58.9122 63.2958 60.4022C63.9915 59.6041 64.4631 58.7179 64.7974 57.7578C66.0373 54.2053 64.8596 50.2667 61.8745 47.9631C61.7981 47.9035 61.7178 47.8465 61.6452 47.783C61.2682 47.4526 61.2112 47.0587 61.4897 46.7193C61.7463 46.4058 62.1544 46.3617 62.5314 46.6338C63.6754 47.4604 64.6044 48.4852 65.3208 49.7018C66.0269 50.9015 66.4752 52.1906 66.6553 53.573C66.6734 53.713 66.7149 53.8503 66.746 53.9889V55.8352L66.7499 55.8339ZM20.4606 60.4138C20.8713 59.6689 21.3221 58.999 21.8507 58.3836C22.3806 57.7669 22.9611 57.1968 23.6335 56.7434C23.9716 56.5154 23.9742 56.3741 23.7592 56.0451C22.4402 54.0291 23.1321 51.3342 25.2374 50.1824C27.3221 49.0423 29.9625 49.8961 30.9549 52.0624C31.5976 53.4642 31.4641 54.8298 30.6336 56.1293C30.5429 56.2705 30.3227 56.3949 30.6038 56.5918C32.0186 57.579 33.1186 58.8539 33.9491 60.3724C36.3861 57.6438 36.938 52.5145 33.5539 48.9231C30.2268 45.3913 24.6739 45.2475 21.2016 48.5539C17.5727 52.0105 17.7968 57.3432 20.4606 60.4138ZM41.886 37.9286C43.8553 37.8962 45.6303 37.3041 47.2083 36.1148C47.4752 35.914 47.5568 35.7559 47.3741 35.4463C47.1021 34.9863 46.8403 34.5225 46.5177 34.0962C45.7352 33.0636 44.7739 32.2383 43.6558 31.5854C43.0183 31.2122 42.9743 30.7121 43.5158 30.2263C43.5884 30.1615 43.6635 30.0993 43.7322 30.0319C44.8166 28.9786 44.8296 27.2606 43.7607 26.2047C42.6931 25.1501 40.9583 25.1838 39.9348 26.2812C38.91 27.3785 38.9903 29.0978 40.111 30.1071C40.8521 30.7743 40.8067 31.1734 39.9387 31.6942C38.4034 32.6154 37.2231 33.8682 36.39 35.4566C36.241 35.7404 36.2656 35.8919 36.5235 36.0889C38.1106 37.2951 39.8972 37.9001 41.8847 37.9299L41.886 37.9286ZM56.5535 63.6204C58.5383 63.6101 60.3185 62.9882 61.9069 61.7911C62.1673 61.5954 62.1919 61.4361 62.0443 61.1549C61.1943 59.5367 59.9804 58.2722 58.4153 57.3381C57.6444 56.8781 57.6055 56.4363 58.2844 55.8378C59.4466 54.8142 59.5424 53.0924 58.5008 51.9846C57.4526 50.8704 55.7088 50.851 54.6412 51.9419C53.5619 53.0444 53.6384 54.787 54.8109 55.8313C55.504 56.448 55.4587 56.8859 54.6541 57.364C53.1435 58.2592 51.9839 59.4849 51.1223 61.0163C50.8839 61.4399 50.9746 61.6408 51.34 61.9025C52.8999 63.0232 54.6243 63.6088 56.5535 63.6204Z" fill="#00A4EC"/>
</svg>
