<svg width="84" height="84" viewBox="0 0 84 84" fill="none" xmlns="http://www.w3.org/2000/svg">
<circle cx="42" cy="42" r="42" fill="#4B44A5" fill-opacity="0.15"/>
<path d="M42.378 21C43.5762 21.4825 44.8244 21.815 46.0513 22.21C49.5084 23.3212 52.9717 24.4175 56.4351 25.5113C57.071 25.7125 57.5708 26.0338 57.722 26.7288C57.8994 27.5513 57.3821 28.3387 56.5238 28.5C55.2669 28.7362 54.0062 28.9525 52.7418 29.1475C52.3995 29.2 52.2633 29.3062 52.2771 29.6725C52.3058 30.4525 52.2858 31.235 52.2858 32.0162C52.2858 32.3675 52.2508 32.735 51.9922 32.9775C51.6998 33.2513 51.6923 33.5612 51.6936 33.91C51.7011 35.5188 51.6836 37.1287 51.7048 38.7375C51.7186 39.7587 51.3375 40.495 50.3367 40.83C50.1481 40.8937 50.1081 41.0125 50.0869 41.1737C49.792 43.3325 48.7725 45.0812 47.1008 46.465C46.7634 46.745 46.8184 47.4675 47.1895 47.71C49.0823 48.95 50.9727 50.195 52.8743 51.42C53.3503 51.7262 53.9313 51.7838 54.466 51.945C55.7342 52.3275 57.026 52.6475 58.1043 53.4825C60.0384 54.9825 60.9804 56.9663 60.9929 59.4C61.0042 61.54 61.0004 63.6813 60.9929 65.8213C60.9867 67.44 60.1795 68.485 58.614 68.9313C58.5716 68.9438 58.5341 68.9762 58.4941 69H25.5111C25.1687 68.855 24.7989 68.7825 24.4791 68.5788C23.6845 68.0725 23.1884 67.3713 23.056 66.4287C22.9723 65.8375 23.0048 65.2425 23.0198 64.65C23.0323 64.1713 23.3309 63.9012 23.7544 63.9188C24.1592 63.9363 24.3979 64.1975 24.4116 64.6738C24.4241 65.095 24.4066 65.5175 24.4191 65.9388C24.4491 66.9588 25.0963 67.5863 26.1183 67.5925C26.9616 67.5975 27.805 67.5775 28.6483 67.6012C28.9869 67.6112 29.1106 67.535 29.0981 67.1688C29.0694 66.3263 29.0856 65.4812 29.0919 64.6387C29.0944 64.2525 29.2718 63.9737 29.6591 63.8812C29.9652 63.8088 30.2051 63.94 30.385 64.1912C30.5025 64.3563 30.4925 64.5462 30.4925 64.7325C30.4937 65.545 30.5062 66.3575 30.4875 67.17C30.48 67.48 30.5437 67.6025 30.891 67.6025C38.2925 67.5925 45.694 67.5925 53.0954 67.6025C53.4203 67.6025 53.5252 67.5175 53.5165 67.1862C53.494 66.3587 53.5052 65.53 53.5115 64.7025C53.5152 64.1862 53.7776 63.8713 54.1899 63.8625C54.6172 63.8537 54.9058 64.1838 54.9121 64.72C54.9208 65.5475 54.9258 66.3763 54.9083 67.2038C54.9021 67.5013 54.977 67.61 55.2944 67.6025C56.184 67.5812 57.0748 67.6025 57.9644 67.5925C58.8789 67.5812 59.5673 66.97 59.5748 66.05C59.5948 63.6138 59.6885 61.1725 59.5373 58.7412C59.3887 56.3563 57.757 54.4187 55.4655 53.7175C54.7059 53.485 53.9363 53.2812 53.1791 53.0387C52.9293 52.9587 52.7431 52.9925 52.5244 53.1237C49.2697 55.0675 46.0038 56.9937 42.7579 58.9512C42.2194 59.2762 41.7996 59.28 41.2586 58.9525C38.0401 57.01 34.7992 55.1012 31.5719 53.1712C31.2971 53.0075 31.0584 52.9512 30.7436 53.0575C30.0789 53.28 29.398 53.4538 28.727 53.6562C26.0258 54.47 24.4341 56.6063 24.4166 59.4338C24.4129 60.0588 24.4254 60.6838 24.4079 61.3088C24.3954 61.7337 24.1242 62.0013 23.7469 62.0163C23.3709 62.03 23.036 61.7738 23.0298 61.365C23.0073 59.87 22.8798 58.3587 23.4046 56.9113C24.2579 54.56 25.9046 53.0425 28.291 52.3225C28.8582 52.1513 29.4267 51.9825 29.9989 51.8325C30.6386 51.665 31.2171 51.3925 31.7706 51.0212C33.4161 49.9163 35.084 48.8462 36.7432 47.7612C37.2192 47.45 37.2592 46.7687 36.8257 46.4025C35.2115 45.035 34.2157 43.3213 33.9271 41.215C33.8996 41.0112 33.8334 40.8875 33.6185 40.8125C32.7264 40.505 32.3103 39.8512 32.3078 38.9212C32.3053 37.1875 32.3016 35.4525 32.3078 33.7188C32.3078 33.4563 32.2654 33.2463 32.063 33.05C31.7793 32.7738 31.7194 32.3962 31.7194 32.0112C31.7194 31.215 31.7069 30.4175 31.7256 29.6213C31.7319 29.3288 31.6369 29.2087 31.347 29.165C30.4525 29.0275 29.5604 28.8762 28.6721 28.7087C28.3297 28.6437 28.2073 28.7113 28.2198 29.09C28.2485 29.9325 28.2385 30.7775 28.2235 31.62C28.2185 31.905 28.2535 32.045 28.5946 32.105C29.2331 32.2162 29.7366 32.7913 29.7091 33.435C29.6016 35.9163 30.2663 38.2937 30.6349 40.71C30.8223 41.9425 30.1714 42.75 28.9157 42.755C27.9637 42.7587 27.0104 42.7625 26.0583 42.755C24.9001 42.745 24.2204 41.9112 24.4204 40.7675C24.7177 39.0613 25.0351 37.3575 25.2887 35.645C25.3836 35.0025 25.3237 34.3363 25.3312 33.68C25.3412 32.7938 25.7347 32.2688 26.5931 32.0813C26.8105 32.0338 26.8267 31.9388 26.8267 31.77C26.8242 30.6763 26.823 29.5825 26.828 28.4887C26.828 28.3212 26.7692 28.2038 26.663 28.0738C25.8897 27.1275 26.2282 25.9637 27.3977 25.5887C31.7031 24.205 36.0123 22.84 40.3178 21.4625C40.7588 21.3213 41.2223 21.2387 41.6284 21H42.378ZM41.9995 33.555C40.4227 33.555 38.846 33.5663 37.2692 33.5463C36.8944 33.5413 36.7282 33.6213 36.7682 34.0275C36.8019 34.3675 36.782 34.7137 36.7682 35.0575C36.7245 36.1925 35.8661 37.1012 34.7417 37.205C34.5093 37.2262 34.2732 37.2275 34.0395 37.2138C33.8034 37.2 33.6997 37.2738 33.7084 37.5263C33.7234 37.9938 33.7122 38.4637 33.7134 38.9312C33.7134 39.2575 33.8546 39.4387 34.1994 39.5012C34.9478 39.6375 35.1927 39.93 35.2652 40.695C35.6825 45.0575 40.0392 47.9275 44.1597 46.4813C46.8871 45.5238 48.3939 43.5125 48.7388 40.64C48.8112 40.04 49.0486 39.695 49.5346 39.5513C50.0394 39.4021 50.2918 39.0683 50.2918 38.55C50.2918 38.3625 50.2918 38.175 50.2918 37.9875C50.2918 37.4825 50.0394 37.2258 49.5346 37.2175C48.184 37.195 47.2532 36.265 47.2295 34.91C47.2245 34.6137 47.2057 34.315 47.2332 34.02C47.267 33.6588 47.1545 33.54 46.7734 33.545C45.1817 33.5675 43.5887 33.5538 41.997 33.5538L41.9995 33.555ZM27.6838 26.9662C27.6838 27.0025 27.6838 27.0387 27.6825 27.075C27.7688 27.1062 27.8525 27.1513 27.9399 27.1663C28.9232 27.3338 29.9077 27.5013 30.8923 27.6613C31.4607 27.7538 32.028 27.9675 32.599 27.9062C34.4443 27.7087 36.2847 27.465 38.1263 27.225C40.0941 26.9688 42.0582 26.7087 44.0472 26.9975C44.8344 27.1112 45.6265 27.1888 46.4161 27.2913C46.8821 27.3513 47.172 27.6688 47.1395 28.0563C47.1045 28.4725 46.7684 28.7175 46.2637 28.6875C46.1237 28.6788 45.9851 28.6537 45.8451 28.6388C44.4508 28.485 43.064 28.1975 41.6534 28.285C38.8947 28.455 36.1685 28.92 33.4261 29.2275C33.1762 29.255 33.1225 29.3612 33.125 29.585C33.1349 30.3188 33.1399 31.0538 33.1225 31.7875C33.115 32.0813 33.2224 32.1538 33.5023 32.1538C39.1696 32.1475 44.8369 32.1462 50.5042 32.1562C50.8315 32.1562 50.894 32.035 50.8877 31.7463C50.8727 31.0437 50.8677 30.34 50.889 29.6375C50.8977 29.3325 50.789 29.2312 50.4967 29.2137C50.1718 29.195 49.842 29.15 49.5271 29.07C49.1048 28.9625 48.8974 28.5425 49.0574 28.1525C49.2023 27.7987 49.4909 27.7 49.857 27.7238C50.6441 27.775 51.4175 28.0038 52.2246 27.8313C53.2154 27.62 54.2199 27.4762 55.2182 27.2987C55.5892 27.2325 55.979 27.2387 56.3376 27.055C56.2302 26.8675 56.054 26.8738 55.9153 26.8288C51.3875 25.3825 46.8571 23.945 42.3306 22.4963C42.0707 22.4125 41.8508 22.4475 41.6084 22.525C37.9864 23.68 34.3619 24.83 30.7386 25.9825C29.7203 26.3063 28.7033 26.6375 27.685 26.965L27.6838 26.9662ZM41.9957 51.7313C42.9153 51.6938 43.8336 51.6512 44.7432 51.49C44.9631 51.4513 45.0555 51.3662 45.108 51.15C45.3791 50.0525 45.5028 48.9412 45.5028 47.8125C45.5028 47.5263 45.4116 47.5125 45.1717 47.61C43.049 48.4788 40.9225 48.4813 38.8035 47.5938C38.5599 47.4925 38.5024 47.5625 38.5024 47.7975C38.5024 48.9412 38.6248 50.07 38.9047 51.1812C38.9547 51.3813 39.0509 51.4513 39.2483 51.4862C40.1578 51.65 41.0762 51.6938 41.9957 51.7313ZM51.4125 52.15C49.9694 51.2062 48.5826 50.315 47.2145 49.3962C46.8472 49.15 46.8259 49.335 46.7959 49.6275C46.6335 51.19 46.2025 52.6788 45.5503 54.1063C45.2092 54.8525 44.7894 55.5537 44.4158 56.3088C46.7235 54.9375 49.0311 53.565 51.4137 52.15H51.4125ZM37.1418 49.1812C35.6025 50.1875 34.1207 51.1562 32.5977 52.1513C34.9678 53.56 37.2792 54.9325 39.5894 56.3063C38.235 54.1213 37.4042 51.7837 37.1418 49.1812ZM27.5439 41.345C27.9799 41.345 28.4184 41.325 28.8532 41.3512C29.2356 41.3737 29.3018 41.2112 29.2406 40.8762C29.0382 39.7575 28.8645 38.6338 28.6558 37.5163C28.5734 37.0775 28.6833 36.4587 28.3472 36.25C28.0049 36.0387 27.4427 36.1837 26.9779 36.1725C26.9629 36.1725 26.9466 36.175 26.9317 36.1725C26.7255 36.1437 26.6206 36.225 26.5856 36.4388C26.3307 37.96 26.0696 39.4788 25.8059 40.9988C25.756 41.2838 25.8897 41.3537 26.1433 41.3487C26.6106 41.3387 27.0778 41.3463 27.5464 41.3463L27.5439 41.345ZM39.5519 52.9587C39.5581 53.0525 39.5519 53.0863 39.5631 53.1138C40.1279 54.5488 41.0512 55.7738 41.8683 57.0625C42.0369 57.3288 42.1119 57.105 42.1856 56.99C42.7004 56.1912 43.2226 55.3962 43.7186 54.585C44.0223 54.0887 44.2934 53.5713 44.4895 52.9562C42.8141 53.1787 41.2011 53.1825 39.5531 52.9587H39.5519ZM35.3714 34.4338C35.3714 33.8496 35.0786 33.5575 34.493 33.5575C34.3369 33.5575 34.1807 33.57 34.0258 33.555C33.7746 33.5312 33.7009 33.645 33.7084 33.8813C33.7209 34.3013 33.7047 34.7238 33.7134 35.1438C33.7297 35.9075 33.5722 35.8137 34.4243 35.8112C35.0565 35.81 35.3539 35.4962 35.3701 34.855C35.3739 34.715 35.3701 34.575 35.3701 34.4338H35.3714ZM50.2918 34.7312C50.2918 33.9437 49.8949 33.5521 49.1011 33.5562C49.0548 33.5562 49.0074 33.5612 48.9611 33.5562C48.7275 33.5275 48.6188 33.6075 48.6326 33.8638C48.6513 34.2213 48.6263 34.58 48.6413 34.9388C48.6675 35.5925 49.0174 35.8175 49.8994 35.8188C50.6241 35.82 50.1693 35.2825 50.2868 35.01C50.3205 34.9313 50.2918 34.825 50.2918 34.7312ZM27.5151 34.7662C27.6088 34.7662 27.705 34.7525 27.795 34.7688C28.231 34.8438 28.3485 34.6575 28.3297 34.2338C28.2973 33.465 28.321 33.4637 27.5701 33.4637C27.3827 33.4637 27.1953 33.4712 27.0079 33.4625C26.808 33.4525 26.748 33.535 26.7318 33.7338C26.648 34.7675 26.6418 34.7662 27.5139 34.7662H27.5151Z" fill="#4B44A5"/>
</svg>
