<svg xmlns="http://www.w3.org/2000/svg" xmlns:xlink="http://www.w3.org/1999/xlink" width="280" height="148" viewBox="0 0 280 148"><defs><clipPath id="b"><rect width="280" height="148"/></clipPath></defs><g id="a" clip-path="url(#b)"><g transform="translate(1 4)"><circle cx="6" cy="6" r="6" transform="translate(5)" fill="#fff"/><circle cx="6" cy="6" r="6" transform="translate(37)" fill="#fff"/><circle cx="6" cy="6" r="6" transform="translate(69)" fill="#fff"/><circle cx="6" cy="6" r="6" transform="translate(101)" fill="#fff"/><circle cx="6" cy="6" r="6" transform="translate(133)" fill="#fff"/><circle cx="6" cy="6" r="6" transform="translate(165)" fill="#fff"/><circle cx="6" cy="6" r="6" transform="translate(197)" fill="#fff"/><circle cx="6" cy="6" r="6" transform="translate(229)" fill="#fff"/><circle cx="6" cy="6" r="6" transform="translate(261)" fill="#fff"/><circle cx="6" cy="6" r="6" transform="translate(5 32)" fill="#fff"/><circle cx="6" cy="6" r="6" transform="translate(37 32)" fill="#fff"/><circle cx="6" cy="6" r="6" transform="translate(69 32)" fill="#fff"/><circle cx="6" cy="6" r="6" transform="translate(101 32)" fill="#fff"/><circle cx="6" cy="6" r="6" transform="translate(133 32)" fill="#fff"/><circle cx="6" cy="6" r="6" transform="translate(165 32)" fill="#fff"/><circle cx="6" cy="6" r="6" transform="translate(197 32)" fill="#fff"/><circle cx="6" cy="6" r="6" transform="translate(229 32)" fill="#fff"/><circle cx="6" cy="6" r="6" transform="translate(261 32)" fill="#fff"/><circle cx="6" cy="6" r="6" transform="translate(5 64)" fill="#fff"/><circle cx="6" cy="6" r="6" transform="translate(37 64)" fill="#fff"/><circle cx="6" cy="6" r="6" transform="translate(69 64)" fill="#fff"/><circle cx="6" cy="6" r="6" transform="translate(101 64)" fill="#fff"/><circle cx="6" cy="6" r="6" transform="translate(133 64)" fill="#fff"/><circle cx="6" cy="6" r="6" transform="translate(165 64)" fill="#fff"/><circle cx="6" cy="6" r="6" transform="translate(197 64)" fill="#fff"/><circle cx="6" cy="6" r="6" transform="translate(229 64)" fill="#fff"/><circle cx="6" cy="6" r="6" transform="translate(261 64)" fill="#fff"/><circle cx="6" cy="6" r="6" transform="translate(5 96)" fill="#fff"/><circle cx="6" cy="6" r="6" transform="translate(37 96)" fill="#fff"/><circle cx="6" cy="6" r="6" transform="translate(69 96)" fill="#fff"/><circle cx="6" cy="6" r="6" transform="translate(101 96)" fill="#fff"/><circle cx="6" cy="6" r="6" transform="translate(133 96)" fill="#fff"/><circle cx="6" cy="6" r="6" transform="translate(165 96)" fill="#fff"/><circle cx="6" cy="6" r="6" transform="translate(197 96)" fill="#fff"/><circle cx="6" cy="6" r="6" transform="translate(229 96)" fill="#fff"/><circle cx="6" cy="6" r="6" transform="translate(261 96)" fill="#fff"/><circle cx="6" cy="6" r="6" transform="translate(5 128)" fill="#fff"/><circle cx="6" cy="6" r="6" transform="translate(37 128)" fill="#fff"/><circle cx="6" cy="6" r="6" transform="translate(69 128)" fill="#fff"/><circle cx="6" cy="6" r="6" transform="translate(101 128)" fill="#fff"/><circle cx="6" cy="6" r="6" transform="translate(133 128)" fill="#fff"/><circle cx="6" cy="6" r="6" transform="translate(165 128)" fill="#fff"/><circle cx="6" cy="6" r="6" transform="translate(197 128)" fill="#fff"/><circle cx="6" cy="6" r="6" transform="translate(229 128)" fill="#fff"/><circle cx="6" cy="6" r="6" transform="translate(261 128)" fill="#fff"/></g></g></svg>