<?xml version="1.0" encoding="UTF-8"?>
<svg id="Layer_1" data-name="Layer 1" xmlns="http://www.w3.org/2000/svg" viewBox="0 0 196.34 64">
  <defs>
    <style>
      .cls-1 {
        fill: #fda621;
      }

      .cls-2 {
        fill: #1a8ac9;
      }
    </style>
  </defs>
  <g>
    <path class="cls-2" d="M73.15,32.13c0,4.83,2.03,7.24,6.08,7.24,.73,0,1.42-.07,2.07-.2,.65-.14,1.44-.36,2.37-.68,.75,1.64,1.25,3.32,1.5,5.05-.66,.25-1.27,.46-1.84,.61-.57,.16-1.12,.28-1.64,.36s-1.04,.14-1.55,.17c-.51,.03-1.04,.05-1.59,.05-1.94,0-3.64-.31-5.1-.94-1.47-.63-2.7-1.5-3.69-2.61-.99-1.11-1.74-2.45-2.24-3.99-.5-1.55-.75-3.23-.75-5.05s.26-3.51,.79-5.07c.52-1.56,1.28-2.91,2.27-4.05,.99-1.14,2.21-2.03,3.67-2.66,1.46-.64,3.11-.96,4.95-.96,1.09,0,2.13,.08,3.11,.24s2.07,.48,3.28,.96c-.05,.93-.22,1.84-.51,2.71-.3,.88-.6,1.65-.92,2.3-.46-.16-.87-.29-1.25-.41-.38-.11-.73-.21-1.08-.27s-.68-.12-1.02-.15-.71-.05-1.09-.05c-1.84,0-3.27,.62-4.29,1.86-1.01,1.24-1.52,3.09-1.52,5.55Z"/>
    <path class="cls-2" d="M92.23,44.29c-.52,.09-1,.16-1.43,.21-.43,.04-.85,.07-1.26,.07s-.88-.03-1.42-.09-1.13-.14-1.79-.26l7.65-24.38c.59-.07,1.14-.12,1.66-.17,.51-.04,1.03-.07,1.55-.07,.43,0,.91,.02,1.42,.07,.51,.05,1.1,.1,1.76,.17l7.54,24.41c-1.3,.21-2.44,.31-3.41,.31-.46,0-.91-.02-1.37-.07-.46-.05-.95-.11-1.47-.21l-1.3-4.75c-.64,.18-1.25,.32-1.83,.41s-1.16,.14-1.72,.14c-.52,0-1.06-.04-1.6-.12-.55-.08-1.12-.2-1.71-.36l-1.26,4.68Zm4.78-18.03l-2.29,8.77c.39,.11,.75,.21,1.09,.27,.34,.07,.69,.1,1.06,.1,.39,0,.77-.03,1.14-.09,.38-.06,.77-.14,1.18-.26l-2.19-8.81Z"/>
    <path class="cls-2" d="M110.84,19.87c.48-.07,1-.13,1.55-.19,.56-.06,1.08-.09,1.55-.09s.95,.03,1.48,.09c.54,.06,1.03,.12,1.49,.19l4.85,12.7,5.02-12.7c.46-.07,.92-.13,1.38-.19,.47-.06,.93-.09,1.38-.09s.97,.03,1.47,.09c.5,.06,.99,.12,1.47,.19l1.16,24.38c-.36,.07-.77,.14-1.21,.21s-1.03,.1-1.76,.1c-.8,0-1.74-.1-2.83-.31l-.48-14.14-3.76,9.32c-.41,.07-.82,.13-1.23,.17-.41,.05-.79,.07-1.13,.07s-.7-.02-1.06-.05c-.36-.03-.74-.1-1.13-.19l-3.35-9.18-.38,14c-.96,.21-1.87,.31-2.73,.31-.8,0-1.72-.1-2.77-.31l.99-24.38Z"/>
    <path class="cls-2" d="M140.51,44.56c-.84,0-1.86-.1-3.04-.31V19.87c.61-.09,1.17-.16,1.67-.21,.5-.04,.94-.07,1.33-.07,.41,0,.87,.02,1.38,.07,.51,.05,1.06,.11,1.66,.21v24.38c-1.21,.21-2.21,.31-3,.31Z"/>
    <path class="cls-2" d="M147.61,19.87c.5-.09,.96-.16,1.37-.21,.41-.04,.81-.07,1.2-.07,.41,0,.84,.03,1.28,.09,.44,.06,.83,.12,1.14,.19l7.92,13.38v-13.38c.59-.09,1.13-.16,1.6-.21,.48-.04,.91-.07,1.3-.07s.8,.02,1.23,.07c.43,.05,.89,.11,1.37,.21l-.03,24.38c-.23,.07-.56,.14-.99,.21-.43,.07-.9,.1-1.4,.1-.57,0-1.08-.04-1.54-.12s-.79-.14-.99-.19l-7.96-13.32v13.32c-1,.21-1.91,.31-2.73,.31s-1.74-.1-2.77-.31V19.87Z"/>
    <path class="cls-2" d="M169.46,32.17c0-1.82,.21-3.51,.63-5.07,.42-1.56,1.07-2.91,1.95-4.05,.88-1.14,1.99-2.03,3.35-2.68,1.35-.65,2.96-.97,4.83-.97s3.47,.33,4.81,.97c1.34,.65,2.45,1.54,3.33,2.68,.88,1.14,1.53,2.49,1.95,4.05,.42,1.56,.63,3.25,.63,5.07s-.21,3.5-.63,5.04c-.42,1.54-1.07,2.87-1.95,4s-1.99,2-3.33,2.63c-1.34,.63-2.95,.94-4.81,.94s-3.48-.31-4.83-.94c-1.36-.63-2.47-1.5-3.35-2.63s-1.53-2.46-1.95-4c-.42-1.54-.63-3.21-.63-5.04Zm15.13,0c0-4.96-1.45-7.44-4.34-7.44s-4.44,2.48-4.44,7.44c0,2.48,.36,4.33,1.08,5.55s1.83,1.83,3.33,1.83c2.91,0,4.37-2.46,4.37-7.38Z"/>
  </g>
  <path class="cls-2" d="M42.86,52.36H20.21l-11.33-19.62L20.21,13.12h22.65l4.97,8.6c.28,.48,.89,.64,1.37,.37l2.6-1.5c.48-.28,.64-.89,.37-1.37l-5.83-10.1c-.36-.62-1.02-1-1.73-1H18.47c-.71,0-1.37,.38-1.73,1L3.69,31.74c-.36,.62-.36,1.38,0,2l13.06,22.62c.36,.62,1.02,1,1.73,1h26.12c.71,0,1.38-.38,1.73-1l5.82-10.09c.28-.48,.11-1.09-.37-1.37l-2.6-1.5c-.48-.28-1.09-.11-1.37,.37l-4.96,8.59Z"/>
  <path class="cls-2" d="M37.27,42.68h-11.47l-5.73-9.94,5.73-9.93h11.47l2.17,3.75c.28,.48,.89,.64,1.37,.37l2.88-1.66c.48-.28,.64-.89,.37-1.37l-3.12-5.41c-.36-.62-1.02-1-1.73-1h-15.31c-.71,0-1.37,.38-1.73,1l-7.65,13.25c-.36,.62-.36,1.38,0,2l7.66,13.26c.36,.62,1.02,1,1.73,1h15.31c.71,0,1.38-.38,1.73-1l3.12-5.41c.28-.48,.11-1.09-.37-1.37l-2.88-1.66c-.48-.28-1.09-.11-1.37,.37l-2.17,3.75Z"/>
  <path class="cls-1" d="M39.19,33.61l19.27,11.13c.67,.38,1.5-.1,1.5-.87V21.62c0-.77-.83-1.25-1.5-.87l-19.27,11.13c-.67,.38-.67,1.35,0,1.73Z"/>
</svg>