<?xml version="1.0" encoding="UTF-8"?>
<svg id="Layer_1" data-name="Layer 1" xmlns="http://www.w3.org/2000/svg" viewBox="0 0 179.1 51.7">
  <defs>
    <style>
      .cls-1 {
        fill: #fff;
      }

      .cls-1, .cls-2 {
        stroke-width: 0px;
      }

      .cls-2 {
        fill: #fda621;
      }
    </style>
  </defs>
  <g>
    <path class="cls-1" d="M36.5,42.3h-19L7.9,25.9l9.5-16.5h19l4.2,7.2c.2.4.7.5,1.2.3l2.2-1.3c.4-.2.5-.7.3-1.2l-4.9-8.4c-.3-.5-.9-.8-1.5-.8h-21.9c-.6,0-1.2.3-1.5.8L3.5,25c-.3.5-.3,1.2,0,1.7l11,19c.3.5.9.8,1.5.8h21.9c.6,0,1.2-.3,1.5-.8l4.9-8.5c.2-.4.1-.9-.3-1.2l-2.2-1.3c-.4-.2-.9-.1-1.2.3l-4.1,7.3h0Z"/>
    <path class="cls-1" d="M31.8,34.2h-9.6l-4.8-8.3,4.8-8.3h9.6l1.8,3.1c.2.4.7.5,1.2.3l2.4-1.4c.4-.2.5-.7.3-1.2l-2.6-4.5c-.3-.5-.9-.8-1.5-.8h-12.8c-.6,0-1.2.3-1.5.8l-6.4,11.1c-.3.5-.3,1.2,0,1.7l6.4,11.1c.3.5.9.8,1.5.8h12.9c.6,0,1.2-.3,1.5-.8l2.6-4.5c.2-.4.1-.9-.3-1.2l-2.4-1.4c-.4-.2-.9-.1-1.2.3l-1.9,3.2h0Z"/>
    <path class="cls-2" d="M33.4,26.6l16.2,9.3c.6.3,1.3-.1,1.3-.7v-18.7c0-.6-.7-1-1.3-.7l-16.2,9.3c-.6.4-.6,1.2,0,1.5Z"/>
  </g>
  <g>
    <path class="cls-1" d="M56.8,25.2c0-1,.2-2.1.6-3.1.4-1,1-1.9,1.7-2.7.8-.8,1.7-1.4,2.7-1.9,1.1-.5,2.3-.7,3.7-.7,1.6,0,3.1.3,4.3,1,1.2.7,2.1,1.6,2.7,2.7l-3.6,2.5c-.2-.4-.4-.8-.6-1-.3-.3-.6-.5-.9-.6-.3-.2-.7-.3-1-.3-.3-.1-.7-.1-1-.1-.7,0-1.3.1-1.7.4-.5.3-.9.6-1.2,1s-.5.9-.7,1.4-.2,1.1-.2,1.6c0,.6.1,1.2.3,1.7s.4,1,.8,1.4.7.7,1.2,1c.5.2,1,.4,1.6.4.3,0,.6,0,1-.1.3-.1.7-.2,1-.4s.6-.4.8-.6.4-.6.6-1l3.8,2.3c-.3.6-.6,1.2-1.2,1.7s-1.1.9-1.8,1.2c-.7.3-1.4.6-2.1.8-.8.2-1.5.3-2.2.3-1.3,0-2.4-.3-3.5-.8s-2-1.2-2.7-2c-.8-.8-1.3-1.8-1.8-2.8-.4-1.1-.6-2.2-.6-3.3Z"/>
    <path class="cls-1" d="M78.5,16.9h4.3l5.9,17h-4.8l-1-3.3h-4.5l-1,3.3h-4.8l5.9-17ZM82.1,27.4l-1.5-5.3-1.6,5.3s3.1,0,3.1,0Z"/>
    <path class="cls-1" d="M103,33.9v-9l-2.9,6.3h-2.5l-2.9-6.3v9h-4.7v-17h5.1l3.7,8,3.7-8h5.1v17h-4.6Z"/>
    <path class="cls-1" d="M122.7,29.8v4.1h-12.1v-17h11.9v4.1h-7.2v2.4h6.2v3.8h-6.2v2.7h7.4v-.1Z"/>
    <path class="cls-1" d="M137.1,29.8v4.1h-12.1v-17h11.9v4.1h-7.2v2.4h6.2v3.8h-6.2v2.7h7.4v-.1Z"/>
    <path class="cls-1" d="M143.9,25.5v8.4h-4.7v-17h3.6l6.8,8.7v-8.7h4.7v17h-3.7l-6.7-8.4Z"/>
    <path class="cls-1" d="M165,34c-1.3,0-2.5-.2-3.5-.7-1.1-.5-2-1.1-2.7-2-.8-.8-1.3-1.7-1.8-2.8-.4-1-.6-2.1-.6-3.2s.2-2.2.6-3.2c.4-1,1-2,1.8-2.7.8-.8,1.7-1.4,2.8-1.9s2.2-.7,3.5-.7,2.5.2,3.5.7c1.1.5,2,1.2,2.7,2,.8.8,1.3,1.7,1.7,2.8s.6,2.1.6,3.2-.2,2.2-.6,3.2c-.4,1-1,1.9-1.8,2.7s-1.7,1.4-2.7,1.9c-1.1.5-2.2.7-3.5.7ZM161.2,25.4c0,.6.1,1.1.2,1.7.2.5.4,1,.7,1.4s.7.8,1.2,1c.5.3,1.1.4,1.7.4.7,0,1.3-.1,1.8-.4s.9-.6,1.2-1,.5-.9.7-1.5c.2-.5.2-1.1.2-1.7s-.1-1.1-.2-1.7-.4-1-.7-1.4-.7-.7-1.2-1-1.1-.4-1.7-.4c-.7,0-1.3.1-1.7.4s-.9.6-1.2,1-.6.9-.7,1.4-.3,1.2-.3,1.8Z"/>
  </g>
</svg>