<?xml version="1.0" encoding="utf-8"?>
<!-- Generator: Adobe Illustrator 28.2.0, SVG Export Plug-In . SVG Version: 6.00 Build 0)  -->
<svg version="1.1" id="Layer_1" xmlns="http://www.w3.org/2000/svg" xmlns:xlink="http://www.w3.org/1999/xlink" x="0px" y="0px"
	 viewBox="0 0 179.1 51.7" style="enable-background:new 0 0 179.1 51.7;" xml:space="preserve">
<style type="text/css">
	.st0{fill:#1A8AC9;}
	.st1{fill:#FDA621;}
</style>
<g>
	<path class="st0" d="M36.5,42.3h-19L7.9,25.9l9.5-16.5h19l4.2,7.2c0.2,0.4,0.7,0.5,1.2,0.3l2.2-1.3c0.4-0.2,0.5-0.7,0.3-1.2L39.4,6
		c-0.3-0.5-0.9-0.8-1.5-0.8H16c-0.6,0-1.2,0.3-1.5,0.8l-11,19c-0.3,0.5-0.3,1.2,0,1.7l11,19c0.3,0.5,0.9,0.8,1.5,0.8h21.9
		c0.6,0,1.2-0.3,1.5-0.8l4.9-8.5c0.2-0.4,0.1-0.9-0.3-1.2l-2.2-1.3c-0.4-0.2-0.9-0.1-1.2,0.3L36.5,42.3L36.5,42.3z"/>
	<path class="st0" d="M31.8,34.2h-9.6l-4.8-8.3l4.8-8.3h9.6l1.8,3.1c0.2,0.4,0.7,0.5,1.2,0.3l2.4-1.4c0.4-0.2,0.5-0.7,0.3-1.2
		l-2.6-4.5c-0.3-0.5-0.9-0.8-1.5-0.8H20.6c-0.6,0-1.2,0.3-1.5,0.8L12.7,25c-0.3,0.5-0.3,1.2,0,1.7l6.4,11.1c0.3,0.5,0.9,0.8,1.5,0.8
		h12.9c0.6,0,1.2-0.3,1.5-0.8l2.6-4.5c0.2-0.4,0.1-0.9-0.3-1.2l-2.4-1.4c-0.4-0.2-0.9-0.1-1.2,0.3L31.8,34.2L31.8,34.2z"/>
	<path class="st1" d="M33.4,26.6l16.2,9.3c0.6,0.3,1.3-0.1,1.3-0.7V16.5c0-0.6-0.7-1-1.3-0.7l-16.2,9.3
		C32.8,25.5,32.8,26.3,33.4,26.6z"/>
</g>
<g>
	<path class="st0" d="M56.8,25.2c0-1,0.2-2.1,0.6-3.1c0.4-1,1-1.9,1.7-2.7c0.8-0.8,1.7-1.4,2.7-1.9c1.1-0.5,2.3-0.7,3.7-0.7
		c1.6,0,3.1,0.3,4.3,1c1.2,0.7,2.1,1.6,2.7,2.7L68.9,23c-0.2-0.4-0.4-0.8-0.6-1c-0.3-0.3-0.6-0.5-0.9-0.6c-0.3-0.2-0.7-0.3-1-0.3
		c-0.3-0.1-0.7-0.1-1-0.1c-0.7,0-1.3,0.1-1.7,0.4c-0.5,0.3-0.9,0.6-1.2,1s-0.5,0.9-0.7,1.4s-0.2,1.1-0.2,1.6c0,0.6,0.1,1.2,0.3,1.7
		c0.2,0.5,0.4,1,0.8,1.4s0.7,0.7,1.2,1c0.5,0.2,1,0.4,1.6,0.4c0.3,0,0.6,0,1-0.1c0.3-0.1,0.7-0.2,1-0.4s0.6-0.4,0.8-0.6
		s0.4-0.6,0.6-1l3.8,2.3c-0.3,0.6-0.6,1.2-1.2,1.7s-1.1,0.9-1.8,1.2c-0.7,0.3-1.4,0.6-2.1,0.8c-0.8,0.2-1.5,0.3-2.2,0.3
		c-1.3,0-2.4-0.3-3.5-0.8s-2-1.2-2.7-2c-0.8-0.8-1.3-1.8-1.8-2.8C57,27.4,56.8,26.3,56.8,25.2z"/>
	<path class="st0" d="M78.5,16.9h4.3l5.9,17h-4.8l-1-3.3h-4.5l-1,3.3h-4.8L78.5,16.9z M82.1,27.4l-1.5-5.3l-1.6,5.3H82.1z"/>
	<path class="st0" d="M103,33.9v-9l-2.9,6.3h-2.5l-2.9-6.3v9h-4.7v-17h5.1l3.7,8l3.7-8h5.1v17H103z"/>
	<path class="st0" d="M122.7,29.8v4.1h-12.1v-17h11.9v4.1h-7.2v2.4h6.2v3.8h-6.2v2.7H122.7z"/>
	<path class="st0" d="M137.1,29.8v4.1h-12.1v-17h11.9v4.1h-7.2v2.4h6.2v3.8h-6.2v2.7H137.1z"/>
	<path class="st0" d="M143.9,25.5v8.4h-4.7v-17h3.6l6.8,8.7v-8.7h4.7v17h-3.7L143.9,25.5z"/>
	<path class="st0" d="M165,34c-1.3,0-2.5-0.2-3.5-0.7c-1.1-0.5-2-1.1-2.7-2c-0.8-0.8-1.3-1.7-1.8-2.8c-0.4-1-0.6-2.1-0.6-3.2
		c0-1.1,0.2-2.2,0.6-3.2c0.4-1,1-2,1.8-2.7c0.8-0.8,1.7-1.4,2.8-1.9c1.1-0.5,2.2-0.7,3.5-0.7c1.3,0,2.5,0.2,3.5,0.7
		c1.1,0.5,2,1.2,2.7,2c0.8,0.8,1.3,1.7,1.7,2.8s0.6,2.1,0.6,3.2c0,1.1-0.2,2.2-0.6,3.2c-0.4,1-1,1.9-1.8,2.7
		c-0.8,0.8-1.7,1.4-2.7,1.9C167.4,33.8,166.3,34,165,34z M161.2,25.4c0,0.6,0.1,1.1,0.2,1.7c0.2,0.5,0.4,1,0.7,1.4
		c0.3,0.4,0.7,0.8,1.2,1c0.5,0.3,1.1,0.4,1.7,0.4c0.7,0,1.3-0.1,1.8-0.4c0.5-0.3,0.9-0.6,1.2-1c0.3-0.4,0.5-0.9,0.7-1.5
		c0.2-0.5,0.2-1.1,0.2-1.7c0-0.6-0.1-1.1-0.2-1.7s-0.4-1-0.7-1.4c-0.3-0.4-0.7-0.7-1.2-1s-1.1-0.4-1.7-0.4c-0.7,0-1.3,0.1-1.7,0.4
		s-0.9,0.6-1.2,1s-0.6,0.9-0.7,1.4S161.2,24.8,161.2,25.4z"/>
</g>
</svg>
