<svg xmlns="http://www.w3.org/2000/svg" xmlns:xlink="http://www.w3.org/1999/xlink" width="280" height="416" viewBox="0 0 280 416"><defs><clipPath id="a"><rect width="141" height="176" fill="none"/></clipPath><clipPath id="c"><rect width="280" height="416"/></clipPath></defs><g id="b" clip-path="url(#c)"><g fill="#1a8ac9" stroke="#707070" stroke-width="1" opacity="0.1"><rect width="247" height="401" stroke="none"/><rect x="0.5" y="0.5" width="246" height="400" fill="none"/></g><g transform="translate(131 203)" clip-path="url(#a)"><g transform="translate(-212 -253)"><circle cx="6" cy="6" r="6" transform="translate(212 253)" fill="#1a8ac9"/></g><g transform="translate(-180 -253)"><circle cx="6" cy="6" r="6" transform="translate(212 253)" fill="#1a8ac9"/></g><g transform="translate(-148 -253)"><circle cx="6" cy="6" r="6" transform="translate(212 253)" fill="#1a8ac9"/></g><g transform="translate(-116 -253)"><circle cx="6" cy="6" r="6" transform="translate(212 253)" fill="#1a8ac9"/></g><g transform="translate(-84 -253)"><circle cx="6" cy="6" r="6" transform="translate(212 253)" fill="#1a8ac9"/></g><g transform="translate(-212 -221)"><circle cx="6" cy="6" r="6" transform="translate(212 253)" fill="#1a8ac9"/></g><g transform="translate(-180 -221)"><circle cx="6" cy="6" r="6" transform="translate(212 253)" fill="#1a8ac9"/></g><g transform="translate(-148 -221)"><circle cx="6" cy="6" r="6" transform="translate(212 253)" fill="#1a8ac9"/></g><g transform="translate(-116 -221)"><circle cx="6" cy="6" r="6" transform="translate(212 253)" fill="#1a8ac9"/></g><g transform="translate(-84 -221)"><circle cx="6" cy="6" r="6" transform="translate(212 253)" fill="#1a8ac9"/></g><g transform="translate(-212 -189)"><circle cx="6" cy="6" r="6" transform="translate(212 253)" fill="#1a8ac9"/></g><g transform="translate(-180 -189)"><circle cx="6" cy="6" r="6" transform="translate(212 253)" fill="#1a8ac9"/></g><g transform="translate(-148 -189)"><circle cx="6" cy="6" r="6" transform="translate(212 253)" fill="#1a8ac9"/></g><g transform="translate(-116 -189)"><circle cx="6" cy="6" r="6" transform="translate(212 253)" fill="#1a8ac9"/></g><g transform="translate(-84 -189)"><circle cx="6" cy="6" r="6" transform="translate(212 253)" fill="#1a8ac9"/></g><g transform="translate(-212 -157)"><circle cx="6" cy="6" r="6" transform="translate(212 253)" fill="#1a8ac9"/></g><g transform="translate(-180 -157)"><circle cx="6" cy="6" r="6" transform="translate(212 253)" fill="#1a8ac9"/></g><g transform="translate(-148 -157)"><circle cx="6" cy="6" r="6" transform="translate(212 253)" fill="#1a8ac9"/></g><g transform="translate(-116 -157)"><circle cx="6" cy="6" r="6" transform="translate(212 253)" fill="#1a8ac9"/></g><g transform="translate(-84 -157)"><circle cx="6" cy="6" r="6" transform="translate(212 253)" fill="#1a8ac9"/></g><g transform="translate(-212 -125)"><circle cx="6" cy="6" r="6" transform="translate(212 253)" fill="#1a8ac9"/></g><g transform="translate(-180 -125)"><circle cx="6" cy="6" r="6" transform="translate(212 253)" fill="#1a8ac9"/></g><g transform="translate(-148 -125)"><circle cx="6" cy="6" r="6" transform="translate(212 253)" fill="#1a8ac9"/></g><g transform="translate(-116 -125)"><circle cx="6" cy="6" r="6" transform="translate(212 253)" fill="#1a8ac9"/></g><g transform="translate(-84 -125)"><circle cx="6" cy="6" r="6" transform="translate(212 253)" fill="#1a8ac9"/></g><g transform="translate(-212 -93)"><circle cx="6" cy="6" r="6" transform="translate(212 253)" fill="#1a8ac9"/></g><g transform="translate(-180 -93)"><circle cx="6" cy="6" r="6" transform="translate(212 253)" fill="#1a8ac9"/></g><g transform="translate(-148 -93)"><circle cx="6" cy="6" r="6" transform="translate(212 253)" fill="#1a8ac9"/></g><g transform="translate(-116 -93)"><circle cx="6" cy="6" r="6" transform="translate(212 253)" fill="#1a8ac9"/></g><g transform="translate(-84 -93)"><circle cx="6" cy="6" r="6" transform="translate(212 253)" fill="#1a8ac9"/></g></g></g></svg>