<svg width="1920" height="1215" viewBox="0 0 1920 1215" fill="none" xmlns="http://www.w3.org/2000/svg">
<g clip-path="url(#clip0_1_7)">
<rect width="1920" height="1215" fill="white"/>
<path d="M1920 0H0V1215L1519.91 1018.3C1748.73 988.69 1920 793.824 1920 563.099V0Z" fill="url(#paint0_linear_1_7)"/>
<circle cx="209" cy="1029" r="50" fill="white" fill-opacity="0.2"/>
<path d="M242 287.5C242 278.085 238.26 269.055 231.602 262.398C224.945 255.74 215.915 252 206.5 252C197.085 252 188.055 255.74 181.398 262.398C174.74 269.055 171 278.085 171 287.5L206.5 287.5H242Z" fill="white" fill-opacity="0.2"/>
<path d="M1938.5 336C1913.61 336 1888.97 340.902 1865.98 350.425C1842.99 359.948 1822.1 373.907 1804.5 391.503C1786.91 409.1 1772.95 429.99 1763.42 452.982C1753.9 475.973 1749 500.615 1749 525.5L1817.61 525.5C1817.61 509.625 1820.74 493.905 1826.81 479.238C1832.89 464.571 1841.79 451.244 1853.02 440.019C1864.24 428.793 1877.57 419.889 1892.24 413.813C1906.9 407.738 1922.62 404.611 1938.5 404.611L1938.5 336Z" fill="white" fill-opacity="0.2"/>
<path d="M908.5 384C933.385 384 958.027 379.098 981.019 369.575C1004.01 360.052 1024.9 346.093 1042.5 328.497C1060.09 310.9 1074.05 290.01 1083.58 267.018C1093.1 244.027 1098 219.385 1098 194.5L1029.39 194.5C1029.39 210.375 1026.26 226.095 1020.19 240.762C1014.11 255.429 1005.21 268.756 993.981 279.981C982.756 291.207 969.429 300.111 954.762 306.187C940.095 312.262 924.375 315.389 908.5 315.389L908.5 384Z" fill="white" fill-opacity="0.2"/>
<circle cx="172" cy="1008" r="48.5" stroke="white" stroke-opacity="0.7" stroke-width="3"/>
<path d="M188.5 265C188.5 271.351 183.351 276.5 177 276.5C170.649 276.5 165.5 271.351 165.5 265C165.5 258.649 170.649 253.5 177 253.5C183.351 253.5 188.5 258.649 188.5 265Z" stroke="white" stroke-opacity="0.7" stroke-width="3"/>
<path d="M419.602 992.922C419.602 991.812 420 990.859 420.797 990.062C421.594 989.25 422.547 988.844 423.656 988.844C424.766 988.844 425.719 989.25 426.516 990.062C427.312 990.859 427.711 991.812 427.711 992.922C427.711 994.031 427.312 994.984 426.516 995.781C425.719 996.578 424.766 996.977 423.656 996.977C422.531 996.977 421.57 996.586 420.773 995.805C419.992 995.023 419.602 994.062 419.602 992.922ZM458.414 992.922C458.414 991.812 458.812 990.859 459.609 990.062C460.406 989.25 461.359 988.844 462.469 988.844C463.578 988.844 464.531 989.25 465.328 990.062C466.125 990.859 466.523 991.812 466.523 992.922C466.523 994.031 466.125 994.984 465.328 995.781C464.531 996.578 463.578 996.977 462.469 996.977C461.344 996.977 460.383 996.586 459.586 995.805C458.805 995.023 458.414 994.062 458.414 992.922ZM497.227 992.922C497.227 991.812 497.625 990.859 498.422 990.062C499.219 989.25 500.172 988.844 501.281 988.844C502.391 988.844 503.344 989.25 504.141 990.062C504.938 990.859 505.336 991.812 505.336 992.922C505.336 994.031 504.938 994.984 504.141 995.781C503.344 996.578 502.391 996.977 501.281 996.977C500.156 996.977 499.195 996.586 498.398 995.805C497.617 995.023 497.227 994.062 497.227 992.922ZM536.039 992.922C536.039 991.812 536.438 990.859 537.234 990.062C538.031 989.25 538.984 988.844 540.094 988.844C541.203 988.844 542.156 989.25 542.953 990.062C543.75 990.859 544.148 991.812 544.148 992.922C544.148 994.031 543.75 994.984 542.953 995.781C542.156 996.578 541.203 996.977 540.094 996.977C538.969 996.977 538.008 996.586 537.211 995.805C536.43 995.023 536.039 994.062 536.039 992.922ZM574.852 992.922C574.852 991.812 575.25 990.859 576.047 990.062C576.844 989.25 577.797 988.844 578.906 988.844C580.016 988.844 580.969 989.25 581.766 990.062C582.562 990.859 582.961 991.812 582.961 992.922C582.961 994.031 582.562 994.984 581.766 995.781C580.969 996.578 580.016 996.977 578.906 996.977C577.781 996.977 576.82 996.586 576.023 995.805C575.242 995.023 574.852 994.062 574.852 992.922ZM613.664 992.922C613.664 991.812 614.062 990.859 614.859 990.062C615.656 989.25 616.609 988.844 617.719 988.844C618.828 988.844 619.781 989.25 620.578 990.062C621.375 990.859 621.773 991.812 621.773 992.922C621.773 994.031 621.375 994.984 620.578 995.781C619.781 996.578 618.828 996.977 617.719 996.977C616.594 996.977 615.633 996.586 614.836 995.805C614.055 995.023 613.664 994.062 613.664 992.922ZM652.477 992.922C652.477 991.812 652.875 990.859 653.672 990.062C654.469 989.25 655.422 988.844 656.531 988.844C657.641 988.844 658.594 989.25 659.391 990.062C660.188 990.859 660.586 991.812 660.586 992.922C660.586 994.031 660.188 994.984 659.391 995.781C658.594 996.578 657.641 996.977 656.531 996.977C655.406 996.977 654.445 996.586 653.648 995.805C652.867 995.023 652.477 994.062 652.477 992.922ZM691.289 992.922C691.289 991.812 691.688 990.859 692.484 990.062C693.281 989.25 694.234 988.844 695.344 988.844C696.453 988.844 697.406 989.25 698.203 990.062C699 990.859 699.398 991.812 699.398 992.922C699.398 994.031 699 994.984 698.203 995.781C697.406 996.578 696.453 996.977 695.344 996.977C694.219 996.977 693.258 996.586 692.461 995.805C691.68 995.023 691.289 994.062 691.289 992.922ZM730.102 992.922C730.102 991.812 730.5 990.859 731.297 990.062C732.094 989.25 733.047 988.844 734.156 988.844C735.266 988.844 736.219 989.25 737.016 990.062C737.812 990.859 738.211 991.812 738.211 992.922C738.211 994.031 737.812 994.984 737.016 995.781C736.219 996.578 735.266 996.977 734.156 996.977C733.031 996.977 732.07 996.586 731.273 995.805C730.492 995.023 730.102 994.062 730.102 992.922ZM768.914 992.922C768.914 991.812 769.312 990.859 770.109 990.062C770.906 989.25 771.859 988.844 772.969 988.844C774.078 988.844 775.031 989.25 775.828 990.062C776.625 990.859 777.023 991.812 777.023 992.922C777.023 994.031 776.625 994.984 775.828 995.781C775.031 996.578 774.078 996.977 772.969 996.977C771.844 996.977 770.883 996.586 770.086 995.805C769.305 995.023 768.914 994.062 768.914 992.922ZM807.727 992.922C807.727 991.812 808.125 990.859 808.922 990.062C809.719 989.25 810.672 988.844 811.781 988.844C812.891 988.844 813.844 989.25 814.641 990.062C815.438 990.859 815.836 991.812 815.836 992.922C815.836 994.031 815.438 994.984 814.641 995.781C813.844 996.578 812.891 996.977 811.781 996.977C810.656 996.977 809.695 996.586 808.898 995.805C808.117 995.023 807.727 994.062 807.727 992.922ZM846.539 992.922C846.539 991.812 846.938 990.859 847.734 990.062C848.531 989.25 849.484 988.844 850.594 988.844C851.703 988.844 852.656 989.25 853.453 990.062C854.25 990.859 854.648 991.812 854.648 992.922C854.648 994.031 854.25 994.984 853.453 995.781C852.656 996.578 851.703 996.977 850.594 996.977C849.469 996.977 848.508 996.586 847.711 995.805C846.93 995.023 846.539 994.062 846.539 992.922ZM419.602 1021.92C419.602 1020.81 420 1019.86 420.797 1019.06C421.594 1018.25 422.547 1017.84 423.656 1017.84C424.766 1017.84 425.719 1018.25 426.516 1019.06C427.312 1019.86 427.711 1020.81 427.711 1021.92C427.711 1023.03 427.312 1023.98 426.516 1024.78C425.719 1025.58 424.766 1025.98 423.656 1025.98C422.531 1025.98 421.57 1025.59 420.773 1024.8C419.992 1024.02 419.602 1023.06 419.602 1021.92ZM458.414 1021.92C458.414 1020.81 458.812 1019.86 459.609 1019.06C460.406 1018.25 461.359 1017.84 462.469 1017.84C463.578 1017.84 464.531 1018.25 465.328 1019.06C466.125 1019.86 466.523 1020.81 466.523 1021.92C466.523 1023.03 466.125 1023.98 465.328 1024.78C464.531 1025.58 463.578 1025.98 462.469 1025.98C461.344 1025.98 460.383 1025.59 459.586 1024.8C458.805 1024.02 458.414 1023.06 458.414 1021.92ZM497.227 1021.92C497.227 1020.81 497.625 1019.86 498.422 1019.06C499.219 1018.25 500.172 1017.84 501.281 1017.84C502.391 1017.84 503.344 1018.25 504.141 1019.06C504.938 1019.86 505.336 1020.81 505.336 1021.92C505.336 1023.03 504.938 1023.98 504.141 1024.78C503.344 1025.58 502.391 1025.98 501.281 1025.98C500.156 1025.98 499.195 1025.59 498.398 1024.8C497.617 1024.02 497.227 1023.06 497.227 1021.92ZM536.039 1021.92C536.039 1020.81 536.438 1019.86 537.234 1019.06C538.031 1018.25 538.984 1017.84 540.094 1017.84C541.203 1017.84 542.156 1018.25 542.953 1019.06C543.75 1019.86 544.148 1020.81 544.148 1021.92C544.148 1023.03 543.75 1023.98 542.953 1024.78C542.156 1025.58 541.203 1025.98 540.094 1025.98C538.969 1025.98 538.008 1025.59 537.211 1024.8C536.43 1024.02 536.039 1023.06 536.039 1021.92ZM574.852 1021.92C574.852 1020.81 575.25 1019.86 576.047 1019.06C576.844 1018.25 577.797 1017.84 578.906 1017.84C580.016 1017.84 580.969 1018.25 581.766 1019.06C582.562 1019.86 582.961 1020.81 582.961 1021.92C582.961 1023.03 582.562 1023.98 581.766 1024.78C580.969 1025.58 580.016 1025.98 578.906 1025.98C577.781 1025.98 576.82 1025.59 576.023 1024.8C575.242 1024.02 574.852 1023.06 574.852 1021.92ZM613.664 1021.92C613.664 1020.81 614.062 1019.86 614.859 1019.06C615.656 1018.25 616.609 1017.84 617.719 1017.84C618.828 1017.84 619.781 1018.25 620.578 1019.06C621.375 1019.86 621.773 1020.81 621.773 1021.92C621.773 1023.03 621.375 1023.98 620.578 1024.78C619.781 1025.58 618.828 1025.98 617.719 1025.98C616.594 1025.98 615.633 1025.59 614.836 1024.8C614.055 1024.02 613.664 1023.06 613.664 1021.92ZM652.477 1021.92C652.477 1020.81 652.875 1019.86 653.672 1019.06C654.469 1018.25 655.422 1017.84 656.531 1017.84C657.641 1017.84 658.594 1018.25 659.391 1019.06C660.188 1019.86 660.586 1020.81 660.586 1021.92C660.586 1023.03 660.188 1023.98 659.391 1024.78C658.594 1025.58 657.641 1025.98 656.531 1025.98C655.406 1025.98 654.445 1025.59 653.648 1024.8C652.867 1024.02 652.477 1023.06 652.477 1021.92ZM691.289 1021.92C691.289 1020.81 691.688 1019.86 692.484 1019.06C693.281 1018.25 694.234 1017.84 695.344 1017.84C696.453 1017.84 697.406 1018.25 698.203 1019.06C699 1019.86 699.398 1020.81 699.398 1021.92C699.398 1023.03 699 1023.98 698.203 1024.78C697.406 1025.58 696.453 1025.98 695.344 1025.98C694.219 1025.98 693.258 1025.59 692.461 1024.8C691.68 1024.02 691.289 1023.06 691.289 1021.92ZM730.102 1021.92C730.102 1020.81 730.5 1019.86 731.297 1019.06C732.094 1018.25 733.047 1017.84 734.156 1017.84C735.266 1017.84 736.219 1018.25 737.016 1019.06C737.812 1019.86 738.211 1020.81 738.211 1021.92C738.211 1023.03 737.812 1023.98 737.016 1024.78C736.219 1025.58 735.266 1025.98 734.156 1025.98C733.031 1025.98 732.07 1025.59 731.273 1024.8C730.492 1024.02 730.102 1023.06 730.102 1021.92ZM768.914 1021.92C768.914 1020.81 769.312 1019.86 770.109 1019.06C770.906 1018.25 771.859 1017.84 772.969 1017.84C774.078 1017.84 775.031 1018.25 775.828 1019.06C776.625 1019.86 777.023 1020.81 777.023 1021.92C777.023 1023.03 776.625 1023.98 775.828 1024.78C775.031 1025.58 774.078 1025.98 772.969 1025.98C771.844 1025.98 770.883 1025.59 770.086 1024.8C769.305 1024.02 768.914 1023.06 768.914 1021.92ZM807.727 1021.92C807.727 1020.81 808.125 1019.86 808.922 1019.06C809.719 1018.25 810.672 1017.84 811.781 1017.84C812.891 1017.84 813.844 1018.25 814.641 1019.06C815.438 1019.86 815.836 1020.81 815.836 1021.92C815.836 1023.03 815.438 1023.98 814.641 1024.78C813.844 1025.58 812.891 1025.98 811.781 1025.98C810.656 1025.98 809.695 1025.59 808.898 1024.8C808.117 1024.02 807.727 1023.06 807.727 1021.92ZM846.539 1021.92C846.539 1020.81 846.938 1019.86 847.734 1019.06C848.531 1018.25 849.484 1017.84 850.594 1017.84C851.703 1017.84 852.656 1018.25 853.453 1019.06C854.25 1019.86 854.648 1020.81 854.648 1021.92C854.648 1023.03 854.25 1023.98 853.453 1024.78C852.656 1025.58 851.703 1025.98 850.594 1025.98C849.469 1025.98 848.508 1025.59 847.711 1024.8C846.93 1024.02 846.539 1023.06 846.539 1021.92Z" fill="white" fill-opacity="0.5"/>
</g>
<defs>
<linearGradient id="paint0_linear_1_7" x1="960" y1="0" x2="1861.64" y2="818.508" gradientUnits="userSpaceOnUse">
<stop stop-color="#1A8AC9"/>
<stop offset="1" stop-color="#69C1F4"/>
</linearGradient>
<clipPath id="clip0_1_7">
<rect width="1920" height="1215" fill="white"/>
</clipPath>
</defs>
</svg>
