<svg width="1920" height="639" viewBox="0 0 1920 639" fill="none" xmlns="http://www.w3.org/2000/svg">
<g clip-path="url(#clip0_59_2)">
<rect width="1920" height="639" fill="white"/>
<path d="M0 0H1920V301.682C1920 434.7 1815.84 544.425 1683 551.344L0 639V0Z" fill="url(#paint0_linear_59_2)"/>
<path d="M75.6016 541.922C75.6016 540.812 76 539.859 76.7969 539.062C77.5938 538.25 78.5469 537.844 79.6562 537.844C80.7656 537.844 81.7188 538.25 82.5156 539.062C83.3125 539.859 83.7109 540.812 83.7109 541.922C83.7109 543.031 83.3125 543.984 82.5156 544.781C81.7188 545.578 80.7656 545.977 79.6562 545.977C78.5312 545.977 77.5703 545.586 76.7734 544.805C75.9922 544.023 75.6016 543.062 75.6016 541.922ZM114.414 541.922C114.414 540.812 114.812 539.859 115.609 539.062C116.406 538.25 117.359 537.844 118.469 537.844C119.578 537.844 120.531 538.25 121.328 539.062C122.125 539.859 122.523 540.812 122.523 541.922C122.523 543.031 122.125 543.984 121.328 544.781C120.531 545.578 119.578 545.977 118.469 545.977C117.344 545.977 116.383 545.586 115.586 544.805C114.805 544.023 114.414 543.062 114.414 541.922ZM153.227 541.922C153.227 540.812 153.625 539.859 154.422 539.062C155.219 538.25 156.172 537.844 157.281 537.844C158.391 537.844 159.344 538.25 160.141 539.062C160.938 539.859 161.336 540.812 161.336 541.922C161.336 543.031 160.938 543.984 160.141 544.781C159.344 545.578 158.391 545.977 157.281 545.977C156.156 545.977 155.195 545.586 154.398 544.805C153.617 544.023 153.227 543.062 153.227 541.922ZM192.039 541.922C192.039 540.812 192.438 539.859 193.234 539.062C194.031 538.25 194.984 537.844 196.094 537.844C197.203 537.844 198.156 538.25 198.953 539.062C199.75 539.859 200.148 540.812 200.148 541.922C200.148 543.031 199.75 543.984 198.953 544.781C198.156 545.578 197.203 545.977 196.094 545.977C194.969 545.977 194.008 545.586 193.211 544.805C192.43 544.023 192.039 543.062 192.039 541.922ZM230.852 541.922C230.852 540.812 231.25 539.859 232.047 539.062C232.844 538.25 233.797 537.844 234.906 537.844C236.016 537.844 236.969 538.25 237.766 539.062C238.562 539.859 238.961 540.812 238.961 541.922C238.961 543.031 238.562 543.984 237.766 544.781C236.969 545.578 236.016 545.977 234.906 545.977C233.781 545.977 232.82 545.586 232.023 544.805C231.242 544.023 230.852 543.062 230.852 541.922ZM269.664 541.922C269.664 540.812 270.062 539.859 270.859 539.062C271.656 538.25 272.609 537.844 273.719 537.844C274.828 537.844 275.781 538.25 276.578 539.062C277.375 539.859 277.773 540.812 277.773 541.922C277.773 543.031 277.375 543.984 276.578 544.781C275.781 545.578 274.828 545.977 273.719 545.977C272.594 545.977 271.633 545.586 270.836 544.805C270.055 544.023 269.664 543.062 269.664 541.922ZM308.477 541.922C308.477 540.812 308.875 539.859 309.672 539.062C310.469 538.25 311.422 537.844 312.531 537.844C313.641 537.844 314.594 538.25 315.391 539.062C316.188 539.859 316.586 540.812 316.586 541.922C316.586 543.031 316.188 543.984 315.391 544.781C314.594 545.578 313.641 545.977 312.531 545.977C311.406 545.977 310.445 545.586 309.648 544.805C308.867 544.023 308.477 543.062 308.477 541.922ZM347.289 541.922C347.289 540.812 347.688 539.859 348.484 539.062C349.281 538.25 350.234 537.844 351.344 537.844C352.453 537.844 353.406 538.25 354.203 539.062C355 539.859 355.398 540.812 355.398 541.922C355.398 543.031 355 543.984 354.203 544.781C353.406 545.578 352.453 545.977 351.344 545.977C350.219 545.977 349.258 545.586 348.461 544.805C347.68 544.023 347.289 543.062 347.289 541.922ZM386.102 541.922C386.102 540.812 386.5 539.859 387.297 539.062C388.094 538.25 389.047 537.844 390.156 537.844C391.266 537.844 392.219 538.25 393.016 539.062C393.812 539.859 394.211 540.812 394.211 541.922C394.211 543.031 393.812 543.984 393.016 544.781C392.219 545.578 391.266 545.977 390.156 545.977C389.031 545.977 388.07 545.586 387.273 544.805C386.492 544.023 386.102 543.062 386.102 541.922ZM424.914 541.922C424.914 540.812 425.312 539.859 426.109 539.062C426.906 538.25 427.859 537.844 428.969 537.844C430.078 537.844 431.031 538.25 431.828 539.062C432.625 539.859 433.023 540.812 433.023 541.922C433.023 543.031 432.625 543.984 431.828 544.781C431.031 545.578 430.078 545.977 428.969 545.977C427.844 545.977 426.883 545.586 426.086 544.805C425.305 544.023 424.914 543.062 424.914 541.922ZM463.727 541.922C463.727 540.812 464.125 539.859 464.922 539.062C465.719 538.25 466.672 537.844 467.781 537.844C468.891 537.844 469.844 538.25 470.641 539.062C471.438 539.859 471.836 540.812 471.836 541.922C471.836 543.031 471.438 543.984 470.641 544.781C469.844 545.578 468.891 545.977 467.781 545.977C466.656 545.977 465.695 545.586 464.898 544.805C464.117 544.023 463.727 543.062 463.727 541.922ZM502.539 541.922C502.539 540.812 502.938 539.859 503.734 539.062C504.531 538.25 505.484 537.844 506.594 537.844C507.703 537.844 508.656 538.25 509.453 539.062C510.25 539.859 510.648 540.812 510.648 541.922C510.648 543.031 510.25 543.984 509.453 544.781C508.656 545.578 507.703 545.977 506.594 545.977C505.469 545.977 504.508 545.586 503.711 544.805C502.93 544.023 502.539 543.062 502.539 541.922ZM75.6016 570.922C75.6016 569.812 76 568.859 76.7969 568.062C77.5938 567.25 78.5469 566.844 79.6562 566.844C80.7656 566.844 81.7188 567.25 82.5156 568.062C83.3125 568.859 83.7109 569.812 83.7109 570.922C83.7109 572.031 83.3125 572.984 82.5156 573.781C81.7188 574.578 80.7656 574.977 79.6562 574.977C78.5312 574.977 77.5703 574.586 76.7734 573.805C75.9922 573.023 75.6016 572.062 75.6016 570.922ZM114.414 570.922C114.414 569.812 114.812 568.859 115.609 568.062C116.406 567.25 117.359 566.844 118.469 566.844C119.578 566.844 120.531 567.25 121.328 568.062C122.125 568.859 122.523 569.812 122.523 570.922C122.523 572.031 122.125 572.984 121.328 573.781C120.531 574.578 119.578 574.977 118.469 574.977C117.344 574.977 116.383 574.586 115.586 573.805C114.805 573.023 114.414 572.062 114.414 570.922ZM153.227 570.922C153.227 569.812 153.625 568.859 154.422 568.062C155.219 567.25 156.172 566.844 157.281 566.844C158.391 566.844 159.344 567.25 160.141 568.062C160.938 568.859 161.336 569.812 161.336 570.922C161.336 572.031 160.938 572.984 160.141 573.781C159.344 574.578 158.391 574.977 157.281 574.977C156.156 574.977 155.195 574.586 154.398 573.805C153.617 573.023 153.227 572.062 153.227 570.922ZM192.039 570.922C192.039 569.812 192.438 568.859 193.234 568.062C194.031 567.25 194.984 566.844 196.094 566.844C197.203 566.844 198.156 567.25 198.953 568.062C199.75 568.859 200.148 569.812 200.148 570.922C200.148 572.031 199.75 572.984 198.953 573.781C198.156 574.578 197.203 574.977 196.094 574.977C194.969 574.977 194.008 574.586 193.211 573.805C192.43 573.023 192.039 572.062 192.039 570.922ZM230.852 570.922C230.852 569.812 231.25 568.859 232.047 568.062C232.844 567.25 233.797 566.844 234.906 566.844C236.016 566.844 236.969 567.25 237.766 568.062C238.562 568.859 238.961 569.812 238.961 570.922C238.961 572.031 238.562 572.984 237.766 573.781C236.969 574.578 236.016 574.977 234.906 574.977C233.781 574.977 232.82 574.586 232.023 573.805C231.242 573.023 230.852 572.062 230.852 570.922ZM269.664 570.922C269.664 569.812 270.062 568.859 270.859 568.062C271.656 567.25 272.609 566.844 273.719 566.844C274.828 566.844 275.781 567.25 276.578 568.062C277.375 568.859 277.773 569.812 277.773 570.922C277.773 572.031 277.375 572.984 276.578 573.781C275.781 574.578 274.828 574.977 273.719 574.977C272.594 574.977 271.633 574.586 270.836 573.805C270.055 573.023 269.664 572.062 269.664 570.922ZM308.477 570.922C308.477 569.812 308.875 568.859 309.672 568.062C310.469 567.25 311.422 566.844 312.531 566.844C313.641 566.844 314.594 567.25 315.391 568.062C316.188 568.859 316.586 569.812 316.586 570.922C316.586 572.031 316.188 572.984 315.391 573.781C314.594 574.578 313.641 574.977 312.531 574.977C311.406 574.977 310.445 574.586 309.648 573.805C308.867 573.023 308.477 572.062 308.477 570.922ZM347.289 570.922C347.289 569.812 347.688 568.859 348.484 568.062C349.281 567.25 350.234 566.844 351.344 566.844C352.453 566.844 353.406 567.25 354.203 568.062C355 568.859 355.398 569.812 355.398 570.922C355.398 572.031 355 572.984 354.203 573.781C353.406 574.578 352.453 574.977 351.344 574.977C350.219 574.977 349.258 574.586 348.461 573.805C347.68 573.023 347.289 572.062 347.289 570.922ZM386.102 570.922C386.102 569.812 386.5 568.859 387.297 568.062C388.094 567.25 389.047 566.844 390.156 566.844C391.266 566.844 392.219 567.25 393.016 568.062C393.812 568.859 394.211 569.812 394.211 570.922C394.211 572.031 393.812 572.984 393.016 573.781C392.219 574.578 391.266 574.977 390.156 574.977C389.031 574.977 388.07 574.586 387.273 573.805C386.492 573.023 386.102 572.062 386.102 570.922ZM424.914 570.922C424.914 569.812 425.312 568.859 426.109 568.062C426.906 567.25 427.859 566.844 428.969 566.844C430.078 566.844 431.031 567.25 431.828 568.062C432.625 568.859 433.023 569.812 433.023 570.922C433.023 572.031 432.625 572.984 431.828 573.781C431.031 574.578 430.078 574.977 428.969 574.977C427.844 574.977 426.883 574.586 426.086 573.805C425.305 573.023 424.914 572.062 424.914 570.922ZM463.727 570.922C463.727 569.812 464.125 568.859 464.922 568.062C465.719 567.25 466.672 566.844 467.781 566.844C468.891 566.844 469.844 567.25 470.641 568.062C471.438 568.859 471.836 569.812 471.836 570.922C471.836 572.031 471.438 572.984 470.641 573.781C469.844 574.578 468.891 574.977 467.781 574.977C466.656 574.977 465.695 574.586 464.898 573.805C464.117 573.023 463.727 572.062 463.727 570.922ZM502.539 570.922C502.539 569.812 502.938 568.859 503.734 568.062C504.531 567.25 505.484 566.844 506.594 566.844C507.703 566.844 508.656 567.25 509.453 568.062C510.25 568.859 510.648 569.812 510.648 570.922C510.648 572.031 510.25 572.984 509.453 573.781C508.656 574.578 507.703 574.977 506.594 574.977C505.469 574.977 504.508 574.586 503.711 573.805C502.93 573.023 502.539 572.062 502.539 570.922Z" fill="white" fill-opacity="0.5"/>
<path d="M452.5 575C477.385 575 502.027 570.098 525.019 560.575C548.01 551.052 568.9 537.093 586.497 519.497C604.093 501.9 618.052 481.01 627.575 458.018C637.098 435.027 642 410.385 642 385.5L573.389 385.5C573.389 401.375 570.262 417.095 564.187 431.762C558.111 446.429 549.207 459.756 537.981 470.981C526.756 482.207 513.429 491.111 498.762 497.187C484.095 503.262 468.375 506.389 452.5 506.389L452.5 575Z" fill="white" fill-opacity="0.2"/>
<path d="M156 131.5C156 122.085 152.26 113.055 145.602 106.398C138.945 99.7402 129.915 96 120.5 96C111.085 96 102.055 99.7402 95.3977 106.398C88.7402 113.055 85 122.085 85 131.5L120.5 131.5H156Z" fill="white" fill-opacity="0.2"/>
<path d="M102.5 109C102.5 115.351 97.3513 120.5 91 120.5C84.6487 120.5 79.5 115.351 79.5 109C79.5 102.649 84.6487 97.5 91 97.5C97.3513 97.5 102.5 102.649 102.5 109Z" stroke="white" stroke-opacity="0.7" stroke-width="3"/>
<path d="M1952.5 52C1927.61 52 1902.97 56.9016 1879.98 66.4249C1856.99 75.9481 1836.1 89.9066 1818.5 107.503C1800.91 125.1 1786.95 145.99 1777.42 168.982C1767.9 191.973 1763 216.615 1763 241.5L1831.61 241.5C1831.61 225.625 1834.74 209.905 1840.81 195.238C1846.89 180.571 1855.79 167.244 1867.02 156.019C1878.24 144.793 1891.57 135.889 1906.24 129.813C1920.9 123.738 1936.62 120.611 1952.5 120.611L1952.5 52Z" fill="white" fill-opacity="0.2"/>
</g>
<defs>
<linearGradient id="paint0_linear_59_2" x1="1920" y1="319" x2="1.82364e-06" y2="319" gradientUnits="userSpaceOnUse">
<stop stop-color="#69C1F4"/>
<stop offset="1" stop-color="#1A8AC9"/>
</linearGradient>
<clipPath id="clip0_59_2">
<rect width="1920" height="639" fill="white"/>
</clipPath>
</defs>
</svg>
